<svg xmlns="http://www.w3.org/2000/svg" viewBox="0 0 87 14">
  <path fill="#f33" d="M0 2.8 4.156 0 2.982 5.467.7 7l5.534 3.719L4.156 14 0 11.2zm12.147 3.425L13.3 7l-5.534 3.719L9.844 14 14 11.2V3.281z"/>
  <path fill="white" d="M30.371 4.797q.702 0 1.297.226.606.226 1.047.643.428.416.679 1.01.25.585.25 1.31v.095q0 .738-.25 1.333a2.9 2.9 0 0 1-.69 1.012 3.1 3.1 0 0 1-1.048.642q-.595.226-1.297.226t-1.297-.226a3.1 3.1 0 0 1-1.035-.642q-.44-.405-.69-.989a3.4 3.4 0 0 1-.25-1.32v-.096q0-.724.25-1.32.25-.607.69-1.023a3.1 3.1 0 0 1 1.035-.643q.607-.238 1.31-.238m18.337 0q.535 0 1.035.13.512.12.916.405.393.285.654.75.262.465.322 1.13h-1.63q-.083-.534-.404-.797-.31-.261-.857-.262-.678 0-1.083.489-.405.476-.404 1.368v.095q0 .941.392 1.416.405.476 1.13.476.524 0 .893-.298.38-.297.44-.904h1.559a2.9 2.9 0 0 1-.25 1.023q-.214.453-.595.774-.38.333-.916.524a3.8 3.8 0 0 1-1.214.178q-.678 0-1.272-.202a2.9 2.9 0 0 1-1.012-.618q-.428-.405-.678-.989a3.6 3.6 0 0 1-.238-1.356v-.096q0-.75.25-1.344.25-.607.69-1.036a3 3 0 0 1 1.023-.63q.582-.226 1.249-.226m6.766 0q.606 0 1.154.19.547.18.964.56t.666.987q.25.596.25 1.428v.476h-4.486q.036.786.43 1.214.404.417 1.117.416.607 0 .905-.237.31-.24.392-.63h1.63q-.154 1.01-.928 1.558-.762.535-2.046.535-.702 0-1.297-.214a2.8 2.8 0 0 1-1.024-.63 2.8 2.8 0 0 1-.69-.988 3.5 3.5 0 0 1-.238-1.333v-.096q0-.736.239-1.332.249-.595.69-1.023a3 3 0 0 1 1.01-.643 3.3 3.3 0 0 1 1.262-.238m8.191-2.274q.762 0 1.416.19.666.192 1.165.572.488.38.798.964.321.583.392 1.368h-1.974q-.108-.773-.548-1.166-.429-.405-1.237-.404-1.011 0-1.606.737-.595.739-.595 2.071v.095q0 1.333.57 2.059.585.726 1.642.725.797 0 1.31-.404.522-.405.642-1.226h1.891a4 4 0 0 1-.392 1.393 3 3 0 0 1-.809.987q-.5.405-1.166.608a5 5 0 0 1-1.451.202q-1.047 0-1.845-.31a3.56 3.56 0 0 1-1.332-.88 3.56 3.56 0 0 1-.82-1.357 5.5 5.5 0 0 1-.275-1.785v-.095q0-.963.322-1.762.322-.809.892-1.38.56-.57 1.332-.88a4.3 4.3 0 0 1 1.678-.322m11.802 2.274q.57 0 1.047.13.476.12.833.393.345.274.535.714.19.441.19 1.071v4.058h-1.677v-.749a2.2 2.2 0 0 1-.713.63q-.43.25-1.166.25-.43 0-.809-.107a1.9 1.9 0 0 1-.655-.333q-.285-.226-.451-.57a2 2 0 0 1-.167-.847q0-.546.238-.927.237-.38.666-.62a3.3 3.3 0 0 1 1.022-.344 7.4 7.4 0 0 1 1.31-.108h.702v-.25q0-.559-.215-.844-.201-.298-.797-.298-.511 0-.761.238-.238.238-.298.643h-1.63q.036-.548.262-.952.238-.405.607-.666.368-.262.856-.381.5-.131 1.07-.131M36.087 8.71q0 .618.274.94.275.309.81.309.547 0 .916-.333.38-.345.38-1.035V4.938h1.714v6.223h-1.713v-.976q-.238.476-.726.797-.476.31-1.25.31-.45 0-.844-.13a1.85 1.85 0 0 1-.667-.43 2 2 0 0 1-.452-.725 3.3 3.3 0 0 1-.154-1.059v-4.01h1.713zM23.035 2.531q1.44 0 2.25.643.82.63.939 1.904H24.45q-.083-.57-.44-.845-.357-.286-.976-.286-.643 0-.964.274a.86.86 0 0 0-.308.69q0 .226.058.404a.66.66 0 0 0 .25.287q.167.13.477.225.31.096.797.167.773.096 1.356.274.583.165.976.452.393.297.583.75.202.452.202 1.106 0 .572-.227 1.071a2.5 2.5 0 0 1-.642.845q-.416.369-1.023.583a4 4 0 0 1-1.356.215q-.88 0-1.524-.19a3 3 0 0 1-1.07-.572 2.5 2.5 0 0 1-.654-.88 3.3 3.3 0 0 1-.262-1.155h1.844q.036.285.119.548.083.25.273.428.19.19.489.31.31.106.785.107.643 0 1.023-.31.38-.321.38-.821 0-.25-.083-.429a.7.7 0 0 0-.25-.308 1.9 1.9 0 0 0-.499-.204 6 6 0 0 0-.773-.166 9 9 0 0 1-1.405-.286 2.9 2.9 0 0 1-.939-.499 1.77 1.77 0 0 1-.56-.738q-.166-.44-.166-1.059 0-.547.214-1.011.226-.465.631-.81a3 3 0 0 1 .976-.523q.57-.19 1.272-.19m58.738-.484q.274 0 .476.036.214.024.417.083v1.297a1.5 1.5 0 0 0-.286-.071 1.5 1.5 0 0 0-.345-.037q-.417 0-.595.239-.178.225-.178.583v.761h2.117V3.594h1.713v1.344h1.308v1.226h-1.308v3q0 .368.166.559.178.178.523.178.191 0 .346-.024.166-.035.31-.095v1.332a3 3 0 0 1-.44.108q-.263.06-.608.06-.987 0-1.5-.489-.51-.5-.51-1.476V6.164H81.26v4.998h-1.713V6.164h-.821V4.938h.82v-.713q0-1.095.584-1.63.595-.548 1.641-.548M45.226 6.458q-.965-.012-1.488.345t-.523 1.25v3.118H41.49V4.946h1.725v1.19q.297-.63.773-.951.476-.322 1.238-.333zm26.888 0q-.963-.012-1.487.345-.523.357-.523 1.25v3.118h-1.725V4.946h1.724v1.19q.298-.63.774-.951.476-.322 1.237-.333zm3.591 2.004q-.75 0-1.166.19-.416.191-.416.69 0 .345.214.548.214.202.69.203.57 0 .951-.286.394-.299.394-.822v-.523zM30.371 6.105q-.713 0-1.118.5-.404.489-.404 1.381v.095q0 .893.392 1.404.393.5 1.13.5.727 0 1.12-.5.404-.5.404-1.392V8.01q0-.893-.405-1.393-.392-.512-1.119-.512m25.103-.118q-.584 0-.963.368-.369.357-.464 1.024h2.783q-.048-.714-.392-1.047-.346-.345-.964-.345M9.998 7H8.03l1.02-4.745L6.06 7H4.09l1.27-5.906h8.356z"/>
</svg>
